<svg xmlns="http://www.w3.org/2000/svg" xmlns:xlink="http://www.w3.org/1999/xlink" viewBox="0 0 1611.6 101.87"><defs><style>.cls-1{fill:url(#linear-gradient);}</style><linearGradient id="linear-gradient" y1="50.93" x2="1611.6" y2="50.93" gradientUnits="userSpaceOnUse"><stop offset="0" stop-color="#ff6a22"/><stop offset="1" stop-color="#ffa300"/></linearGradient></defs><title>Asset 1</title><g id="Layer_2" data-name="Layer 2"><g id="Layer_1-2" data-name="Layer 1"><path class="cls-1" d="M17.27,0a11.7,11.7,0,0,1,2.66,4.65q31.21-8,45.16,18.26L67.4,33.2l.33,33.87Q69.73,77,80,77.7q5-2,8-8a56.33,56.33,0,0,0,.66-12.95V6.31a39,39,0,0,1,12.95-.66h15.61l.33,59.43.33,2.32q1.66,10,11.62,10.63,7-2.32,9.3-10.29l.66-5.31V6h27.89V67.07a14.23,14.23,0,0,1-1,5v1q-14.61,38.18-54.79,25.57L103.93,94l-1.33-1.33Q82,108.91,56.78,95.29,35.86,80.35,38.52,52.13V37.19l.66-1a12.77,12.77,0,0,0-3-6,14.42,14.42,0,0,0-7.64-.66,32,32,0,0,1,2,5.64,13.2,13.2,0,0,1-4.32-1.66L0,22.25l.33-1.66a40.07,40.07,0,0,0,4.32-5.31l3-3.32L9,10,10.29,8.3a7.19,7.19,0,0,0,2-2.32,19.42,19.42,0,0,1,2.32-2.66l.33-.66,1.66-2Z"/><path class="cls-1" d="M178.88,5.31H242.3q1.66,0,1.33,2V24.24a9.8,9.8,0,0,1-.33,4.32H204.78l-2,.33v8l.33,1h40.51V57.77a6.07,6.07,0,0,1-.33,3.32H204.78l-2,.33V76.7l.33,1.66h40.51V101.6H178.88Z"/><path class="cls-1" d="M253.59,6h41.17a20.75,20.75,0,0,0,5.64.66l2.32.66,3.65,1q19.92,9.3,13.95,31.88l-3,5-.66.66q17.26,13.61,10,35.86-5,11-17.27,16.93a36.23,36.23,0,0,1-6.64,1.66l-2.66.66-2,.33a8.18,8.18,0,0,0-4,.33H253.59Zm24.24,55.45a32.28,32.28,0,0,0-.33,8.3v6l.33,3.65Q309.37,82,304.06,65.08a10.12,10.12,0,0,0-4.32-3l-2-.33-2.32-.33Zm-.33-32.87v9.63l.33,1q21.91,2.32,19.59-9a7.57,7.57,0,0,0-3-1.66l-16.6-.33Z"/><path class="cls-1" d="M353.53,37.52Q349.21,5.31,389.39,2h9.3l1,.33,8.3.33a8.62,8.62,0,0,0,2.66.33l2,.33,3.65,1h1l11.29,5.31,1,.66-3,6.31-.33,1a20.89,20.89,0,0,0-2.32,5l-4.65,9q-14.94-9.63-33.87-5.64a13.48,13.48,0,0,0-3.32,3,8.84,8.84,0,0,0,1,4,15.29,15.29,0,0,0,4.65,3,14,14,0,0,1,4,1.66L397,39.18l2.66,1,11.62,4a10.24,10.24,0,0,1,4,1.66l1,.33,8,5a26.42,26.42,0,0,1,7,9.63Q440.19,88,410,98.28q-28.56,8.63-59.1-5l-6.31-4.65-1.66-1.33a21.66,21.66,0,0,0-4,4.65l-1.33,1.66-1.33,1.66-1,.66-.66-6.64-.33-2-.33-3L333.61,82l-.33-1V79l-.33-2.32a11.77,11.77,0,0,1-.66-4.32l-.33-3-.33-1.33V63.75l29.55-.33a19.19,19.19,0,0,1-3.65,5,18,18,0,0,0,3.65,2l1.33,1,.66-.33q16.6,11,37.19,5.64l3-2.32.66-.66a5.94,5.94,0,0,0-.33-4.32,35.83,35.83,0,0,0-16.27-7.64l-9-3-3-1a7.49,7.49,0,0,0-3.32-1.33l-1-.66-3-1.33-2-1-.66-.66-2.66-1.66-1.33-1A30.81,30.81,0,0,1,353.53,37.52Z"/><path class="cls-1" d="M439.19,70.72Q431.23,8.63,470.41,2q37.52-2.32,45.16,37.85,5.64,55.45-37.19,61.76Q448.82,101.93,439.19,70.72ZM492,45.82q-.33-19.92-17.93-20.92a21.46,21.46,0,0,0-6.31,2.66q-11,16.6-4.65,38.18,7.3,21.91,23.91,7Q493,60.76,492,45.82Z"/><path class="cls-1" d="M526.35,31.21Q535,7,562.54,2.66q17.93-1.33,35.2,9.3l-3,6-.66.66-6,11a11.63,11.63,0,0,0-1.66,3.32q-22.58-17.93-35.86,3-9,20.25,4.32,38.52Q570.84,86,589.44,69.06l3.32,6.64,1.66,3.65,2,4.65.66,1,1.66,3.65V90a18.65,18.65,0,0,1-2.32,3.32q-38.18,20.58-64.08-8.3l-4-7Q520,59.85,526.35,31.21Z"/><path class="cls-1" d="M608.45,6.64h23.91V34.2l.33.66,1-2.32,3.32-5,1-1.33,1-1.66,6-9.63,1-1.33L649.62,8l.66-1.33h27.56a61.32,61.32,0,0,1-4.32,7l-4.32,7-1.66,2.32-1,1.33a31.62,31.62,0,0,1-3,4.65l-2.32,4-1,1.33-9.63,14.94a27.66,27.66,0,0,1,4.32,7.3l2.32,3.65.33,1,3,5,1,2,5.64,9.63a14.6,14.6,0,0,1,1.33,2.66l3,5a34.07,34.07,0,0,0,3,5.31l.33,1,5.31,9v1H653.6l-4.65-8A18,18,0,0,1,647,90l-4.65-7.64-2-3.65-1-2-4-6.64a24.69,24.69,0,0,1-3,5V101.6H612.76a9.81,9.81,0,0,1-4.32-.33V54.79l-.33-1,.33-1Z"/><path class="cls-1" d="M692.37,5.31h63.42q1.66,0,1.33,2V24.24a9.8,9.8,0,0,1-.33,4.32H718.27l-2,.33v8l.33,1h40.51V57.77a6.07,6.07,0,0,1-.33,3.32H718.27l-2,.33V76.7l.33,1.66h40.51V101.6H692.37Z"/><path class="cls-1" d="M766.33,6.64H846l1.33.33V29.55H817.79l-1.66.33v70.39q0,1.66-2,1.33H790.57V29.88l-24.24-.33Z"/><path class="cls-1" d="M973,1l6.64.33L982,2h1q17.6,5.65,25.57,24.24l1.66,6.64a14.08,14.08,0,0,1,.33,2.32V97.29H992.28a11.52,11.52,0,0,1-4.65-.33V66.41l-.33-1.66H960.4q1,38.18-32.87,36.86-16.93-.67-26.23-17.27a11.76,11.76,0,0,1-3.32,1,24.52,24.52,0,0,1,2.32-7.64L901,76l.33-1.33,4-10,2.32,1.33a14.53,14.53,0,0,1,2.66,1.33l1,.33,4.65,2.66,2,1,7.64,4,.66.33-4.65,2A13.76,13.76,0,0,0,935.83,80a9.92,9.92,0,0,0,2.66-5V55.78Q933.84,8,973,1Zm14.28,33.87q-2.66-11.62-15.27-12-10.63,4-11.29,15.94a27.17,27.17,0,0,0,7.64.33h18.93A7.18,7.18,0,0,0,987.29,34.86Z"/><path class="cls-1" d="M1048.31,2.66q31-2.74,42.67,28.89l1,70.06h-27.14V40.09a25.12,25.12,0,0,0-2.41-7.89,11.79,11.79,0,0,0-8.55-5.48,14.67,14.67,0,0,0-8.3,7.89,34.64,34.64,0,0,0-1,5.48l-.33.75V101.6h-26.48v-45Q1012.61,14,1048.31,2.66Z"/><path class="cls-1" d="M1129.65,2.57q29.88-2.74,41.17,28.89l1,70.14h-22.58a28.91,28.91,0,0,1-.33-7.89V68.56l-3.65-.33h-19.59a9.78,9.78,0,0,0-4.32.33v31.62l-.33,1.41H1100.1V36.27a35,35,0,0,1,2.32-8.63l1.66-4.4Q1112.06,8.05,1129.65,2.57Zm18.93,34.37q-2.66-11.29-14.61-12.37-11,3.49-12,16.52a27.17,27.17,0,0,0,7.64.33h18.93A7.73,7.73,0,0,0,1148.58,36.94Z"/><path class="cls-1" d="M1181.53,6.64h23.91V77.7a12.38,12.38,0,0,0,5,.33H1240l.33,3v19.26l-.33,1.33h-56.11l-2.32-.33Z"/><path class="cls-1" d="M1246.53,8.63l2,.33,22.91.33a37.69,37.69,0,0,1,8.63,6.64,20.93,20.93,0,0,1,2.32,5l.33.66a51.6,51.6,0,0,1,0,8.3V51.47q3.65,6,11.62,7,6.64-1.33,10.29-8a56.33,56.33,0,0,0,.66-12.95V27.23a19.48,19.48,0,0,1,.66-4.65l.33-2.32,2.32-5.64,1-1.33,1.33-2a7.63,7.63,0,0,1,2.66-2.66h31.54q-12.29,17.93-11,42.17l-.33,3.65-1.66,5.31-1.33,2.32-.33,1q-9,12.62-25.57,17.6V101.6h-25.23V79q-26.56-9-24.57-38.52l-.33-8a22.24,22.24,0,0,1-.66-6l-.33-2.32-.66-2.32V20.59A25,25,0,0,0,1246.53,8.63Z"/><path class="cls-1" d="M1352.86,30.21q3-25.9,39.84-28.22h10.63l1.33.33,8.3.33,2.66.33,2.32.33,3.32.66,2,.33,7,2.32a22.65,22.65,0,0,1,6.64,4.32,36,36,0,0,0-3.32,6l-1.33,2.32a3.59,3.59,0,0,0-.66,1.33,6.44,6.44,0,0,0-.83,1.16,9.15,9.15,0,0,0-.83,1.83l-1.33,2.32a3.59,3.59,0,0,0-.66,1.33,18,18,0,0,0-2,3.65l-2-.33q-13.28-6.31-30.21-6l-5,1a12.47,12.47,0,0,0-5,4,10,10,0,0,0,5.64,6l5.31,1.66a5.08,5.08,0,0,0,2,.66l2.32,1,2.32.66q44.49,8,38.85,40.18a33.44,33.44,0,0,1-4.15,6.64A26.52,26.52,0,0,1,1427.9,93l-.66.66q-35.2,15.94-75,.33V89.32a27.81,27.81,0,0,0,3.32-5.31,16.69,16.69,0,0,0,1.66-2.32l1.66-3L1360.5,76l2.32-3.32.66-1.33A62.11,62.11,0,0,0,1404,77a17.68,17.68,0,0,0,6-4q-.67-5.31-6.64-7.3l-12.62-4-1.33-.66-1.33-.33a25.44,25.44,0,0,1-4.65-1.33l-2-.66-3.65-1-1.33-.33a23,23,0,0,0-5-2l-4.32-2.32-1-.33-5.64-4.32-2.32-2.32A27.51,27.51,0,0,1,1352.86,30.21Z"/><path class="cls-1" d="M1450.56,5.31H1514q1.66,0,1.33,2V24.24a9.8,9.8,0,0,1-.33,4.32h-38.52l-2,.33v8l.33,1h40.51V57.77a6.07,6.07,0,0,1-.33,3.32h-38.52l-2,.33V76.7l.33,1.66h40.51V101.6h-64.75Z"/><path class="cls-1" d="M1545.85,6h7q17.26-2,34.2,7.64a30.58,30.58,0,0,1,8,11.29q7,21.25-12.95,35.86a40.22,40.22,0,0,1,4.32,5.31L1588,68.4l.33.66,4.65,6.31.33.66,1,1a29.61,29.61,0,0,0,2.66,3.65l1.66,2.66.66.66,2,3,.66.66,8,11.29a9.75,9.75,0,0,1,1.66,2.66h-30.21l-1.33-2-1-1.33-4-5.64L1573.75,91l-1-1.33L1571.09,87a2.92,2.92,0,0,1-1.16-1.16q-.5-.83-.83-1.49l-6.31-9-1.33-1.66-3.65-5.31a16,16,0,0,1-2-2.32h-3.32a27.17,27.17,0,0,0-.33,7.64V101.6h-25.23v-95h10l2.66-.33h5.31Zm6.64,22.91a12.36,12.36,0,0,0-.33,5v10a35.45,35.45,0,0,0,16.27-2l1.66-2.32Q1573.41,27.56,1552.5,28.89Z"/></g></g></svg>